<?xml version="1.0" encoding="UTF-8" standalone="no"?>
<!DOCTYPE svg PUBLIC "-//W3C//DTD SVG 1.1//EN" "http://www.w3.org/Graphics/SVG/1.1/DTD/svg11.dtd">
<svg width="100%" height="100%" viewBox="0 0 1024 1024" version="1.1" xmlns="http://www.w3.org/2000/svg" xmlns:xlink="http://www.w3.org/1999/xlink" xml:space="preserve" xmlns:serif="http://www.serif.com/" style="fill-rule:evenodd;clip-rule:evenodd;stroke-linejoin:round;stroke-miterlimit:2;">
    <path d="M1024,106.127C1024,47.554 976.446,0 917.873,0L106.127,0C47.554,0 0,47.554 0,106.127L0,917.873C0,976.446 47.554,1024 106.127,1024L917.873,1024C976.446,1024 1024,976.446 1024,917.873L1024,106.127Z" style="fill:white;"/>
    <g transform="matrix(1.11851,0,0,1.11851,-110.45,-65.508)">
        <path d="M438.338,813.884C414.78,807.07 398.774,800.916 381.028,790.504C361.106,778.816 319.555,733.703 419.348,675.478C452.051,656.398 493.444,642.661 545.902,623.612C544.576,635.568 541.994,647.546 539.648,658.515C537.577,668.2 519.844,713.164 519.844,713.164C519.844,713.164 578.17,679.096 596.739,653.856C611.683,633.542 622.934,611.645 630.888,587.162C657.399,573.614 685.458,556.912 714.868,535.585C720.304,531.643 706.876,515.609 677.663,502.172C631.197,480.799 602.832,477.335 599.962,476.667C599.262,476.504 631.961,471.409 679.079,484.455C732.651,499.288 736.18,519.421 736.272,519.339C743.783,512.576 775.168,470.494 781.058,462.567C801.214,435.442 809.258,410.022 815.182,387.019C816.681,381.197 743.846,354.005 666.808,351.005C619.842,349.176 555.646,351.389 489.733,384.479C483.069,387.824 439.232,354.937 360.324,364.066C276.13,373.806 234.209,417.636 229.681,424.14C229.274,424.725 230.917,424.847 231.52,425.227C233.724,426.617 263.011,428.287 301.497,444.497C339.661,460.57 348.981,472.362 348.337,472.874C281.376,526.154 247.182,598.442 232.932,649.039C199.938,593.169 181,528.029 181,458.5C181,251.256 349.256,83 556.5,83C763.744,83 932,251.256 932,458.5C932,624.47 824.089,765.435 674.662,815L674.662,909.204C674.662,920.595 670.137,931.52 662.083,939.574C654.028,947.629 643.104,952.154 631.713,952.154L481.25,952.154C457.55,952.154 438.338,932.941 438.338,909.242L438.338,813.884ZM582.069,316.947C582.069,276.903 549.607,244.441 509.563,244.441C496.835,244.441 484.332,247.791 473.309,254.155L487.094,278.031C493.926,274.087 501.675,272.011 509.563,272.011C534.38,272.011 554.499,292.129 554.499,316.947L582.069,316.947ZM697.313,316.947C697.313,213.256 613.254,129.197 509.563,129.197C476.605,129.197 444.229,137.872 415.687,154.351L428.865,177.174C453.4,163.009 481.232,155.551 509.563,155.551C598.699,155.551 670.958,227.811 670.958,316.947L697.313,316.947ZM641.216,316.947C641.216,244.237 582.273,185.293 509.563,185.293C486.452,185.293 463.749,191.376 443.736,202.931L456.94,225.802C472.939,216.565 491.088,211.702 509.563,211.702C567.688,211.702 614.808,258.822 614.808,316.947L641.216,316.947ZM470.523,748.032L470.523,909.242C470.523,915.166 475.326,919.968 481.25,919.968L631.713,919.968C634.568,919.968 637.305,918.834 639.324,916.815C641.343,914.797 642.477,912.059 642.477,909.204C642.477,909.204 642.477,748.032 642.477,748.032L470.523,748.032ZM528.338,823.157L528.338,886.196L500.622,886.196L500.622,823.157L528.338,823.157ZM612.378,823.157L612.378,886.196L584.663,886.196L584.663,823.157L612.378,823.157Z" style="fill:rgb(0,85,184);"/>
    </g>
</svg>
